<svg width="587" height="573" viewBox="0 0 587 573" fill="none" xmlns="http://www.w3.org/2000/svg"><path opacity="0.4" d="M584 174.5L329.185 304.516C305.751 316.473 291 340.56 291 366.869V536.5" stroke="url(#paint0_linear_3679_1090)"></path><path opacity="0.4" d="M6.5 113.5L342.829 280.961C356.413 287.724 365 301.593 365 316.768V532" stroke="url(#paint1_linear_3679_1090)"></path><path opacity="0.4" d="M216 1L563.811 173.966C577.405 180.726 586 194.599 586 209.781V571.5" stroke="url(#paint2_linear_3679_1090)"></path><path opacity="0.4" d="M70 70L417.811 242.966C431.405 249.726 440 263.599 440 278.781V573" stroke="url(#paint3_linear_3679_1090)"></path><path class="CageAnimation_animatedPath__5jd53" d="M70 70L417.811 242.966C431.405 249.726 440 263.599 440 278.781V573" stroke="url(#paint3_linear_3679_1090)" opacity="0.10604854579999912" pathLength="1" stroke-dashoffset="0px" stroke-dasharray="0.8939514542000009px 1px" data-projection-id="2"></path><path opacity="0.4" d="M1 189L250.542 305.166C275.22 316.654 291 341.406 291 368.627V401" stroke="url(#paint5_linear_3679_1090)"></path><path opacity="0.4" d="M142 33L489.811 205.966C503.405 212.726 512 226.599 512 241.781V571.5" stroke="url(#paint6_linear_3679_1090)"></path><path class="CageAnimation_animatedPath__5jd53" opacity="0.37026454579999835" d="M142 33L489.811 205.966C503.405 212.726 512 226.599 512 241.781V571.5" stroke="url(#paint6_linear_3679_1090)" pathLength="1" stroke-dashoffset="0px" stroke-dasharray="0.6297354542000017px 1px" data-projection-id="3"></path><path opacity=".4" d="M581 108L240.86 281.075C227.447 287.9 219 301.676 219 316.725V573" stroke="url(#paint7_linear_3679_1090)"></path><path class="CageAnimation_animatedPath__5jd53" d="M581 108L240.86 281.075C227.447 287.9 219 301.676 219 316.725V573" stroke="url(#paint7_linear_3679_1090)" opacity="0" pathLength="1" stroke-dashoffset="0px" stroke-dasharray="1px 1px" data-projection-id="4"></path><path opacity="0.4" d="M364 1L23.8599 174.075C10.447 180.9 1.99999 194.676 1.99999 209.725V466" stroke="url(#paint9_linear_3679_1090)"></path><path opacity="0.4" d="M437 33L96.8599 206.075C83.447 212.9 75 226.676 75 241.725V498" stroke="url(#paint10_linear_3679_1090)"></path><path opacity="0.4" d="M508 70L167.86 243.075C154.447 249.9 146 263.676 146 278.725V508.5" stroke="url(#paint11_linear_3679_1090)"></path><path class="CageAnimation_animatedPath__5jd53" d="M508 70L167.86 243.075C154.447 249.9 146 263.676 146 278.725V508.5" stroke="url(#paint11_linear_3679_1090)" opacity="0" pathLength="1" stroke-dashoffset="0px" stroke-dasharray="1px 1px" data-projection-id="5"></path><path opacity="0.4" d="M219 144L144 182L216.5 218L291.5 180L219 144Z" fill="white" fill-opacity="0.1"></path><path opacity="0.4" d="M432.5 108.5C410.167 120 365.2 143.1 364 143.5L439 180.5L507 146L432.5 108.5Z" fill="white" fill-opacity="0.1"></path><path opacity="0.4" d="M132 331C136.558 331 216.492 369.418 270.506 395.74C283.821 402.229 299.32 402.519 312.853 396.496L460 331" stroke="url(#paint12_linear_3679_1090)"></path><path opacity="0.4" d="M132 418C136.584 418 217.414 454.789 271.436 479.716C284.231 485.621 298.904 485.88 311.891 480.408L460 418" stroke="url(#paint13_linear_3679_1090)"></path><defs><linearGradient id="paint0_linear_3679_1090" x1="211.5" y1="472.5" x2="583" y2="177.001" gradientUnits="userSpaceOnUse"><stop stop-color="white" stop-opacity="0"></stop><stop offset="0.604167" stop-color="white"></stop><stop offset="1" stop-color="white" stop-opacity="0"></stop></linearGradient><linearGradient id="paint1_linear_3679_1090" x1="401.5" y1="514.499" x2="-0.527036" y2="103.623" gradientUnits="userSpaceOnUse"><stop stop-color="white" stop-opacity="0"></stop><stop offset="0.604167" stop-color="white"></stop><stop offset="1" stop-color="white" stop-opacity="0"></stop></linearGradient><linearGradient id="paint2_linear_3679_1090" x1="613.086" y1="242.082" x2="188.858" y2="66.626" gradientUnits="userSpaceOnUse"><stop stop-color="white" stop-opacity="0"></stop><stop offset="0.302083" stop-color="white"></stop><stop offset="0.796875" stop-color="white" stop-opacity="0"></stop></linearGradient><linearGradient id="paint3_linear_3679_1090" x1="523.5" y1="296.5" x2="59.3142" y2="94.5631" gradientUnits="userSpaceOnUse"><stop stop-color="white" stop-opacity="0"></stop><stop offset="0.604167" stop-color="white"></stop><stop offset="1" stop-color="white" stop-opacity="0"></stop></linearGradient><linearGradient id="paint4_linear_3679_1090" x1="523.5" y1="296.5" x2="59.3142" y2="94.5631" gradientUnits="userSpaceOnUse"><stop offset="0.604067" stop-color="white" stop-opacity="0"></stop><stop offset="0.604167" stop-color="white"></stop><stop offset="0.786458" stop-color="white" stop-opacity="0"></stop></linearGradient><linearGradient id="paint5_linear_3679_1090" x1="291" y1="322.5" x2="52.2636" y2="206.401" gradientUnits="userSpaceOnUse"><stop offset="0.372633" stop-color="white"></stop><stop offset="1" stop-color="white" stop-opacity="0"></stop></linearGradient><linearGradient id="paint6_linear_3679_1090" x1="539.086" y1="260.56" x2="122.308" y2="77.9416" gradientUnits="userSpaceOnUse"><stop stop-color="white" stop-opacity="0"></stop><stop offset="0.604167" stop-color="white"></stop><stop offset="1" stop-color="white" stop-opacity="0"></stop></linearGradient><linearGradient id="paint7_linear_3679_1090" x1="181.5" y1="507.5" x2="583.959" y2="111.004" gradientUnits="userSpaceOnUse"><stop stop-color="white" stop-opacity="0"></stop><stop offset="0.583333" stop-color="white"></stop><stop offset="1" stop-color="white" stop-opacity="0"></stop></linearGradient><linearGradient id="paint8_linear_3679_1090" x1="181.5" y1="507.5" x2="583.959" y2="111.004" gradientUnits="userSpaceOnUse"><stop offset="0.583233" stop-color="white" stop-opacity="0"></stop><stop offset="0.583333" stop-color="white"></stop><stop offset="0.807292" stop-color="white" stop-opacity="0"></stop></linearGradient><linearGradient id="paint9_linear_3679_1090" x1="-24.5" y1="197.5" x2="365.445" y2="3.91024" gradientUnits="userSpaceOnUse"><stop stop-color="white" stop-opacity="0"></stop><stop offset="0.302083" stop-color="white"></stop><stop offset="0.796875" stop-color="white" stop-opacity="0"></stop></linearGradient><linearGradient id="paint10_linear_3679_1090" x1="48.5" y1="229.5" x2="438.445" y2="35.9102" gradientUnits="userSpaceOnUse"><stop stop-color="white" stop-opacity="0"></stop><stop offset="0.604167" stop-color="white"></stop><stop offset="1" stop-color="white" stop-opacity="0"></stop></linearGradient><linearGradient id="paint11_linear_3679_1090" x1="95.5" y1="275" x2="509.507" y2="73.0898" gradientUnits="userSpaceOnUse"><stop stop-color="white" stop-opacity="0"></stop><stop offset="0.604167" stop-color="white"></stop><stop offset="1" stop-color="white" stop-opacity="0"></stop></linearGradient><linearGradient id="paint12_linear_3679_1090" x1="296" y1="331" x2="296" y2="406" gradientUnits="userSpaceOnUse"><stop stop-color="white" stop-opacity="0"></stop><stop offset="1" stop-color="white"></stop></linearGradient><linearGradient id="paint13_linear_3679_1090" x1="296" y1="418" x2="296" y2="489" gradientUnits="userSpaceOnUse"><stop stop-color="white" stop-opacity="0"></stop><stop offset="1" stop-color="white"></stop></linearGradient></defs></svg>